<svg aria-hidden="true" style="position: absolute; width: 0; height: 0; overflow: hidden;" version="1.1" xmlns="http://www.w3.org/2000/svg" xmlns:xlink="http://www.w3.org/1999/xlink">
    <defs>
        <symbol id="icon-image-1" viewBox="0 0 91 32">
            <path fill="#fff" style="fill: var(--color1, #fff)" d="M0 0l91.022 0.003v31.983l-91.022 0.014v-32zM29.706 2.108h-27.61v27.783h27.61v-27.783zM88.935 2.103h-57.133v27.783h57.133v-27.782zM60.019 16.942v5.111c0 0.772 0.178 1.332 0.528 1.682 0.356 0.349 0.791 0.526 1.313 0.526 0.519 0 0.957-0.176 1.31-0.526s0.528-0.91 0.528-1.681v-5.111h1.74v5.148c0 1.22-0.348 2.159-1.045 2.821-0.697 0.664-1.54 0.998-2.532 0.998-1.003 0-1.849-0.334-2.541-0.998-0.692-0.662-1.040-1.601-1.040-2.821v-5.148h1.74zM70.871 16.851c0.607 0 1.207 0.134 1.803 0.4 0.618 0.279 1.147 0.639 1.604 1.075l-0.002-0.002-1.136 1.052c-0.322-0.26-0.695-0.475-1.1-0.626l-0.028-0.009c-0.435-0.161-0.814-0.24-1.143-0.24h-0.098c-0.372 0-0.717 0.077-1.040 0.235s-0.485 0.408-0.485 0.755c0 0.27 0.127 0.469 0.382 0.595 0.257 0.128 0.621 0.222 1.090 0.28l0.708 0.078c0.984 0.117 1.751 0.387 2.3 0.806 0.551 0.417 0.827 1.057 0.827 1.919 0 0.83-0.324 1.492-0.965 1.985-0.645 0.494-1.467 0.747-2.464 0.755h-0.077c-0.831 0-1.568-0.168-2.212-0.501s-1.154-0.764-1.53-1.289l1.132-1.049c0.228 0.32 0.568 0.597 1.021 0.836s0.984 0.355 1.589 0.355h0.078c0.511-0.008 0.92-0.11 1.228-0.304s0.462-0.457 0.462-0.787c0-0.356-0.141-0.612-0.417-0.766-0.279-0.158-0.682-0.267-1.212-0.336l-0.692-0.078c-1.992-0.238-2.987-1.046-2.987-2.434 0-0.814 0.308-1.462 0.926-1.946 0.618-0.489 1.395-0.74 2.34-0.758h0.098zM51.726 16.853c1.244 0 2.305 0.443 3.181 1.324 0.88 0.886 1.321 1.953 1.321 3.205 0 1.249-0.441 2.32-1.321 3.203-0.875 0.88-1.936 1.323-3.18 1.323s-2.303-0.443-3.178-1.323c-0.875-0.883-1.31-1.953-1.31-3.203 0-1.252 0.434-2.319 1.31-3.205 0.875-0.881 1.934-1.324 3.177-1.324zM40.015 16.943v3.59h3.416v-3.59h1.74v8.88h-1.74v-3.641h-3.416v3.641h-1.739v-8.88h1.739zM82.408 16.942v1.65h-4.135v1.94h3.819v1.65h-3.819v1.991h4.135v1.649h-5.874v-8.88h5.874zM25.747 6.304v2.1h-17.389v15.181h15.301v-6.539h-7.755v-2.101h9.843v10.74h-19.476v-19.381h19.476zM51.726 18.502c-0.782 0-1.434 0.27-1.96 0.811-0.528 0.542-0.788 1.23-0.788 2.069 0 0.843 0.26 1.537 0.788 2.073 0.526 0.537 1.178 0.806 1.961 0.806 0.79 0 1.445-0.27 1.973-0.806 0.523-0.536 0.788-1.23 0.788-2.074 0-0.838-0.265-1.527-0.796-2.069-0.528-0.541-1.183-0.811-1.965-0.811zM42.171 6.093c1.311 0 2.419 0.491 3.329 1.471l-1.135 1.052c-0.581-0.585-1.311-0.876-2.194-0.876-0.782 0-1.434 0.27-1.96 0.806-0.528 0.536-0.788 1.23-0.788 2.074 0 0.838 0.26 1.529 0.788 2.068 0.526 0.542 1.178 0.814 1.96 0.814 0.597 0 1.125-0.165 1.589-0.496v-1.535h-1.616v-1.318h3.355v3.523c-0.91 0.982-2.018 1.473-3.328 1.473-1.244 0-2.303-0.443-3.178-1.326-0.875-0.881-1.31-1.951-1.31-3.203 0-1.249 0.434-2.32 1.31-3.203s1.934-1.323 3.177-1.323zM70.872 6.079c0.605 0 1.207 0.134 1.801 0.401 0.619 0.277 1.149 0.637 1.604 1.074l-0.002-0.002-1.136 1.052c-0.322-0.262-0.695-0.477-1.1-0.627l-0.027-0.009c-0.432-0.16-0.814-0.24-1.141-0.24h-0.101c-0.371 0-0.716 0.077-1.040 0.235-0.324 0.155-0.485 0.409-0.485 0.756 0 0.269 0.127 0.469 0.384 0.595 0.257 0.128 0.619 0.222 1.091 0.28l0.705 0.075c0.983 0.117 1.75 0.387 2.299 0.806 0.552 0.416 0.828 1.060 0.828 1.921 0 0.828-0.321 1.492-0.965 1.983-0.642 0.496-1.464 0.747-2.464 0.758h-0.078c-0.83 0-1.567-0.169-2.212-0.502-0.642-0.336-1.152-0.763-1.53-1.289l1.135-1.051c0.225 0.323 0.567 0.6 1.021 0.835 0.451 0.238 0.984 0.358 1.586 0.358h0.078c0.514-0.008 0.92-0.112 1.227-0.304 0.308-0.195 0.462-0.459 0.462-0.788 0-0.355-0.14-0.612-0.416-0.768-0.279-0.155-0.679-0.267-1.21-0.337l-0.695-0.075c-1.992-0.238-2.987-1.049-2.987-2.436 0-0.811 0.308-1.46 0.926-1.946s1.397-0.737 2.34-0.755h0.1zM49.893 6.17v5.111c0 0.772 0.178 1.332 0.528 1.681 0.356 0.35 0.791 0.526 1.313 0.526 0.519 0 0.957-0.176 1.31-0.526s0.528-0.91 0.528-1.681v-5.111h1.74v5.148c0 1.22-0.348 2.159-1.045 2.821-0.697 0.664-1.54 0.998-2.532 0.998-1.003 0-1.849-0.334-2.541-0.998-0.692-0.662-1.040-1.601-1.040-2.821v-5.148h1.74zM64.796 6.17v1.65h-4.135v1.94h3.819v1.65h-3.819v1.99h4.134v1.65h-5.874v-8.88h5.875zM82.761 6.168v1.65h-2.421v7.229h-1.74v-7.229h-2.419v-1.65h6.581z"></path>
        </symbol>
        <symbol id="icon-Beds" viewBox="0 0 32 32">
            <path fill="#52503b" style="fill: var(--color1, #52503b)" d="M27.18 22.909v-0.104l-3.063-12.831v-7.169c0-1.558-1.225-2.805-2.756-2.805h-10.823c-1.531 0-2.756 1.247-2.756 2.805v7.169l-3.064 12.831c0 0.052-0.051 0.156-0.051 0.208v8.052c0 0.52 0.409 0.935 0.919 0.935s0.919-0.416 0.919-0.935v-1.455c0.204-0.571 3.268-1.974 9.495-1.974s9.291 1.454 9.495 1.974v1.454c0 0.52 0.409 0.935 0.919 0.935s0.919-0.416 0.919-0.935v-8c-0.102-0.052-0.154-0.104-0.154-0.156zM9.364 11.013h13.12l2.655 11.117h-18.43l2.655-11.117zM9.568 2.805c0-0.519 0.409-0.987 0.97-0.987h10.823c0.51 0 0.97 0.416 0.97 0.987v6.39h-12.763v-6.39zM15.949 25.818c-2.859 0-7.096 0.364-9.495 1.558v-3.428h18.94v3.428c-2.349-1.195-6.585-1.558-9.445-1.558z"></path>
        </symbol>
        <symbol id="icon-Bedrooms" viewBox="0 0 32 32">
            <path fill="#52503b" style="fill: var(--color1, #52503b)" d="M24.352 0c1.593 0 2.93 1.301 2.982 2.966v26.016c0 1.665-1.337 3.018-2.982 3.018h-16.704c-1.644 0-2.981-1.353-2.981-3.018v-26.016c0-1.665 1.337-2.966 2.93-2.966h16.756zM24.301 1.769h-16.705c-0.668 0-1.182 0.573-1.182 1.197v26.016c0 0.677 0.566 1.197 1.183 1.197h16.704c0.668 0 1.182-0.573 1.182-1.197v-26.016c0-0.676-0.565-1.197-1.182-1.197zM21.576 13.893c0.925 0 1.747 0.78 1.747 1.77s-0.77 1.769-1.747 1.769c-0.977 0-1.747-0.78-1.747-1.769s0.771-1.77 1.747-1.77z"></path>
        </symbol>
        <symbol id="icon-Bathrooms" viewBox="0 0 32 32">
            <path fill="#52503b" style="fill: var(--color1, #52503b)" d="M31.065 14.575h-24.935v-10.13c0-0.686 0.519-1.213 1.195-1.213h4v1.53c-1.091 0.159-1.974 1.108-1.974 2.269v2.322c0 0.527 0.415 0.95 0.935 0.95h3.688c0.52 0 0.935-0.422 0.935-0.95v-2.322c0-1.055-0.727-1.952-1.714-2.216v-2.533c0-0.527-0.416-0.95-0.935-0.95h-4.935c-1.663 0-3.013 1.372-3.013 3.060v10.13h-3.377c-0.519 0-0.935 0.422-0.935 0.95s0.415 0.95 0.935 0.95h1.247v4.22c0 3.113 2.285 5.698 5.247 6.12l-1.143 2.585c-0.207 0.475 0 1.003 0.468 1.213 0.104 0.053 0.26 0.105 0.364 0.105 0.364 0 0.675-0.211 0.831-0.527l1.455-3.271h14.649l1.454 3.271c0.156 0.369 0.468 0.527 0.831 0.527 0.104 0 0.26 0 0.364-0.105 0.326-0.145 0.549-0.465 0.549-0.837 0-0.136-0.030-0.266-0.083-0.382l0.002 0.006-1.299-2.902c2.286-0.897 3.948-3.165 3.948-5.803v-4.22h1.247c0.52 0 0.935-0.422 0.935-0.95 0-0.475-0.416-0.897-0.935-0.897zM13.039 8.456h-1.87v-1.425c0-0.263 0.207-0.475 0.467-0.475h0.935c0.26 0 0.467 0.212 0.467 0.475v1.425zM28 20.642c0 2.375-1.922 4.379-4.311 4.379h-15.377c-2.338 0-4.311-1.951-4.311-4.379v-4.22h24v4.22z"></path>
        </symbol>
        <symbol id="icon-IMAGE1-1" viewBox="0 0 32 32">
            <path fill="#52503b" style="fill: var(--color1, #52503b)" d="M29.454 0c1.351 0 2.494 1.093 2.546 2.445v27.058c0 1.404-1.143 2.497-2.493 2.497h-27.013c-1.377-0.002-2.493-1.118-2.493-2.496 0-0.001 0-0.001 0-0.002v0-27.057c0-0.001 0-0.003 0-0.004 0-1.348 1.093-2.441 2.441-2.441 0 0 0.001 0 0.001 0h27.013zM29.454 1.769h-27.013c-0.363 0-0.675 0.312-0.675 0.676v27.058c0 0.364 0.311 0.676 0.676 0.676h27.013c0.363 0 0.676-0.312 0.676-0.676v-27.059c0-0.364-0.313-0.676-0.676-0.676zM19.948 26.329c0.519 0 0.935 0.416 0.935 0.936s-0.416 0.937-0.935 0.937h-0.78c-0.001 0-0.002 0-0.004 0-0.514 0-0.932-0.417-0.932-0.932 0-0.002 0-0.004 0-0.006v0c0-0.52 0.415-0.936 0.935-0.936h0.78zM24.78 26.329c0.519 0 0.935 0.416 0.935 0.936s-0.416 0.937-0.935 0.937h-0.78c-0.001 0-0.002 0-0.004 0-0.514 0-0.932-0.417-0.932-0.932 0-0.002 0-0.004 0-0.006v0c0-0.52 0.416-0.936 0.935-0.936h0.78zM9.402 16.338c2.183 0 4 1.822 4 4.007s-1.817 4.006-4 4.006c-2.181 0-4-1.821-4-4.006s1.819-4.007 4-4.007zM22.493 16.338c2.234 0 4 1.822 4 4.007s-1.818 4.006-4 4.006c-2.181 0-4-1.821-4-4.006s1.819-4.007 4-4.007zM9.403 18.16c-1.203 0.008-2.176 0.982-2.182 2.184v0.001c0.006 1.203 0.979 2.177 2.181 2.185h0.001c1.203-0.008 2.176-0.982 2.182-2.184v-0.001c-0.006-1.203-0.979-2.178-2.181-2.186h-0.001zM22.493 18.16c-1.203 0.009-2.175 0.982-2.181 2.184v0.001c0.006 1.203 0.979 2.176 2.181 2.185h0.001c1.203-0.008 2.176-0.982 2.182-2.184v-0.001c-0.006-1.203-0.979-2.178-2.181-2.186h-0.001zM9.403 4.734c2.182 0 4 1.769 4 4.006 0 2.186-1.818 4.007-4 4.007s-4-1.822-4-4.007 1.818-4.006 4-4.006zM22.493 4.734c2.234 0 4 1.769 4 4.006 0 2.186-1.818 4.007-4 4.007s-4-1.822-4-4.007 1.819-4.006 4-4.006zM9.403 6.556c-1.203 0.008-2.176 0.982-2.182 2.184v0.001c0.006 1.204 0.979 2.178 2.181 2.186h0.001c1.203-0.008 2.176-0.982 2.182-2.185v-0.001c-0.007-1.203-0.979-2.177-2.181-2.185h-0.001zM22.493 6.556c-1.203 0.009-2.175 0.982-2.181 2.184v0.001c0.006 1.203 0.979 2.177 2.181 2.186h0.001c1.203-0.008 2.176-0.982 2.182-2.185v-0.001c-0.006-1.203-0.979-2.177-2.181-2.185h-0.001z"></path>
        </symbol>
        <symbol id="icon-IMAGE2-2" viewBox="0 0 32 32">
            <path fill="#52503b" style="fill: var(--color1, #52503b)" d="M25.878 10.796l0.173 0.009c0.397 0.044 0.744 0.238 0.972 0.549l3.019 4.011c0.312 0.406 0.364 0.964 0.104 1.422-0.156 0.253-0.364 0.456-0.625 0.609l2.29 3.807c0.26 0.457 0.26 0.964-0.052 1.422-0.208 0.456-0.676 0.71-1.197 0.71h-3.747v4.417c0 0.508-0.416 0.914-0.937 0.914-0.004 0-0.009 0-0.014 0-0.506 0-0.917-0.408-0.922-0.913v-4.417h-3.799c-0.468 0-0.937-0.305-1.197-0.711-0.122-0.195-0.195-0.432-0.195-0.685s0.073-0.491 0.198-0.691l-0.003 0.005 2.29-3.858c-0.26-0.102-0.468-0.356-0.624-0.61-0.105-0.182-0.166-0.4-0.166-0.633 0-0.299 0.102-0.573 0.272-0.792l-0.002 0.003 3.018-4.011c0.26-0.356 0.676-0.558 1.145-0.558zM8.602 3.333c0.468 0 0.884 0.203 1.145 0.558l4.892 6.397c0.312 0.406 0.364 0.964 0.104 1.421-0.257 0.458-0.738 0.762-1.291 0.762-0.003 0-0.007 0-0.010-0h0.001l3.695 6.346c0.123 0.195 0.195 0.432 0.195 0.685s-0.073 0.491-0.198 0.691l0.003-0.005c-0.208 0.406-0.676 0.66-1.197 0.66h-6.348v6.853c0 0.508-0.416 0.915-0.937 0.915-0.005 0-0.010 0-0.015 0-0.506 0-0.917-0.408-0.922-0.913v-6.854h-6.297c-0.521 0-0.989-0.305-1.25-0.762-0.26-0.406-0.208-0.964 0.052-1.371l4.059-6.244h-0.468c-0.521 0-0.989-0.305-1.25-0.762-0.105-0.182-0.166-0.4-0.166-0.632 0-0.299 0.102-0.574 0.273-0.793l-0.002 0.003 4.788-6.396c0.26-0.356 0.676-0.558 1.145-0.558zM25.827 12.827l-2.342 3.097c0.208 0.102 0.417 0.305 0.521 0.508 0.123 0.195 0.195 0.432 0.195 0.686s-0.073 0.491-0.199 0.691l0.003-0.005-2.187 3.706h8.015l-2.187-3.707c-0.122-0.195-0.195-0.432-0.195-0.685s0.073-0.491 0.198-0.691l-0.003 0.005c0.105-0.203 0.313-0.405 0.521-0.507l-2.341-3.098zM8.602 5.415l-4.007 5.331h0.364c0.52 0 1.040 0.304 1.249 0.711 0.208 0.405 0.208 0.964-0.052 1.37l-4.007 6.244h13.010l-3.695-6.295c-0.122-0.195-0.195-0.432-0.195-0.685s0.073-0.491 0.198-0.691l-0.003 0.005c0.26-0.356 0.677-0.66 1.145-0.66l-4.005-5.331z"></path>
        </symbol>
        <symbol id="icon-IMAGE3-3" viewBox="0 0 32 32">
            <path fill="#52503b" style="fill: var(--color1, #52503b)" d="M28.187 0h-18.766c-1.782 0-3.197 1.403-3.197 3.169v2.493c-0 0.010-0 0.022-0 0.034 0 1.426 0.97 2.625 2.285 2.974l0.021 0.005v2.077c0 0.52 0.42 0.935 0.943 0.935s0.944-0.415 0.944-0.935v-1.922h10.746c0.734 0 1.363 0.623 1.363 1.351v11.636c0 0.728-0.628 1.351-1.363 1.351h-8.492c1.405-1.090 2.302-2.778 2.306-4.675v-0.001c0-0.519-0.419-0.935-0.943-0.935h-10.222c-0.524 0-0.943 0.416-0.943 0.935 0.004 1.898 0.901 3.586 2.293 4.666l0.013 0.010h-1.311c-1.782 0-3.197 1.403-3.197 3.169v2.493c0 1.766 1.415 3.169 3.197 3.169h24.27c1.782 0 3.198-1.403 3.198-3.169v-25.662c0.051-1.715-1.416-3.169-3.146-3.169zM12.985 19.377c-0.419 1.87-2.097 3.22-4.089 3.22s-3.668-1.403-4.089-3.22h8.178zM29.549 28.831c0 0.727-0.628 1.351-1.363 1.351h-24.323c-0.733 0-1.363-0.624-1.363-1.351v-2.493c0-0.727 0.629-1.351 1.363-1.351h17.194c1.782 0 3.197-1.403 3.197-3.168v-11.636c0-1.766-1.415-3.169-3.197-3.169h-11.637c-0.733 0-1.363-0.624-1.363-1.351v-2.493c0-0.727 0.629-1.351 1.363-1.351h18.714c0.734 0 1.364 0.624 1.364 1.351v25.662h0.052z"></path>
        </symbol>
        <symbol id="icon-IMAGE4-4" viewBox="0 0 32 32">
            <path fill="#52503b" style="fill: var(--color1, #52503b)" d="M20.572 10.089l0.236 0.009c1.088 0.083 1.977 0.729 2.413 1.732l6.078 14.38h1.766c0.519 0 0.935 0.358 0.935 0.87-0.002 0.509-0.415 0.921-0.924 0.921-0.004 0-0.008-0-0.011-0h-30.129c-0.519 0-0.935-0.358-0.935-0.87 0.002-0.509 0.415-0.921 0.924-0.921 0.004 0 0.007 0 0.011 0h1.143l5.298-12.793c0.416-1.076 1.404-1.74 2.598-1.74 1.195 0.052 2.181 0.666 2.649 1.74l2.39 5.578 2.96-7.164c0.416-1.075 1.404-1.74 2.598-1.74zM20.572 11.932l-0.052 0.002c-0.395 0.022-0.729 0.265-0.881 0.607l-0.003 0.007-3.689 8.852 2.078 4.861h1.715v-1.229c-1.039-0.46-1.766-1.689-1.766-3.224 0-1.945 1.195-3.428 2.649-3.428s2.649 1.535 2.649 3.428c0 1.535-0.675 2.764-1.714 3.224v1.228h5.766l-5.818-13.715c-0.208-0.563-0.78-0.613-0.935-0.613zM9.973 13.518c-0.156 0-0.676 0.051-0.935 0.613l-5.038 12.13h12.052l-5.142-12.128c-0.208-0.563-0.78-0.614-0.935-0.614zM20.622 20.119c-0.311 0-0.831 0.614-0.831 1.638 0 1.022 0.468 1.637 0.831 1.637s0.831-0.614 0.831-1.637c0-1.024-0.519-1.638-0.831-1.638zM27.378 4c1.818 0 3.272 1.433 3.272 3.224s-1.506 3.224-3.272 3.224-3.273-1.433-3.273-3.224c0-1.791 1.454-3.224 3.273-3.224zM27.378 5.842c-0.78 0-1.455 0.614-1.455 1.433s0.624 1.433 1.455 1.433 1.454-0.613 1.454-1.433c0-0.818-0.676-1.433-1.454-1.433z"></path>
        </symbol>
        <symbol id="icon-IMAGE5-5" viewBox="0 0 32 32">
            <path fill="#52503b" style="fill: var(--color1, #52503b)" d="M29.507 8c1.351 0 2.493 1.12 2.493 2.507v10.933c0 1.44-1.143 2.56-2.493 2.56h-27.013c-1.351 0-2.442-1.12-2.493-2.453v-10.987c0-1.44 1.143-2.56 2.493-2.56h27.013zM15.116 18.88h-5.714v3.253h5.714v-3.253zM22.649 18.88h-5.714v3.253h5.714v-3.253zM7.584 18.88h-5.714v2.613c0 0.373 0.26 0.64 0.623 0.64h5.091v-3.253zM30.13 18.88h-5.714v3.253h5.091c0.364 0 0.676-0.267 0.623-0.64v-2.613zM29.507 9.867h-27.013c-0.364 0-0.623 0.267-0.623 0.64v6.56h28.311v-6.507c0-0.373-0.311-0.693-0.676-0.693zM26.442 12.427c0.519 0 0.935 0.427 0.935 0.96s-0.416 0.96-0.935 0.96h-3.324c-0.52 0-0.936-0.427-0.936-0.96s0.416-0.96 0.935-0.96h3.324z"></path>
        </symbol>
        <symbol id="icon-IMAGE6-6" viewBox="0 0 32 32">
            <path fill="#52503b" style="fill: var(--color1, #52503b)" d="M27.948 6.804h-5.559v-1.824c-0.003-2.009-1.628-3.638-3.635-3.647h-5.508c-2.027 0-3.636 1.668-3.636 3.647v1.824h-5.559c-2.234 0-4.052 1.823-4.052 4.063v5.107c0 0.001 0 0.003 0 0.004 0 0.515 0.418 0.933 0.933 0.933 0.001 0 0.001 0 0.002 0h0.467v9.9c-0 0.004-0 0.009-0 0.014 0 2.121 1.72 3.841 3.841 3.841 0.001 0 0.003 0 0.004 0h21.506c0.001 0 0.002 0 0.004 0 2.121 0 3.841-1.72 3.841-3.841 0-0.005 0-0.010-0-0.015v0.001-9.9h0.468c0.001 0 0.001 0 0.002 0 0.515 0 0.933-0.418 0.933-0.933 0-0.002 0-0.004-0-0.006v0-5.107c0-2.24-1.818-4.063-4.052-4.063zM11.428 4.98c0-0.99 0.831-1.823 1.819-1.823h5.454c0.987 0 1.818 0.833 1.818 1.823v1.824h-9.091v-1.824zM1.87 10.868c0-1.198 0.987-2.24 2.234-2.24h23.896c1.195 0 2.234 0.99 2.234 2.24v4.22h-28.364v-4.22zM28.78 26.759c0 0 0 0.001 0 0.001 0 1.12-0.907 2.029-2.026 2.031h-21.506c-1.12-0.003-2.027-0.911-2.027-2.031 0-0 0-0.001 0-0.001v0-9.9h6.39v3.23c0 0.001 0 0.003 0 0.004 0 0.515 0.418 0.933 0.933 0.933 0.001 0 0.001 0 0.002 0h-0c0.001 0 0.001 0 0.002 0 0.515 0 0.933-0.418 0.933-0.933 0-0.002 0-0.003 0-0.005v0-3.23h9.141v3.23c0 0.001 0 0.003 0 0.004 0 0.515 0.418 0.933 0.933 0.933 0.001 0 0.001 0 0.002 0h-0c0.001 0 0.001 0 0.002 0 0.515 0 0.933-0.418 0.933-0.933 0-0.002 0-0.003 0-0.005v0-3.23h6.389v9.9h-0.103z"></path>
        </symbol>
        <symbol id="icon-IMAGE7-7" viewBox="0 0 32 32">
            <path fill="#52503b" style="fill: var(--color1, #52503b)" d="M23.323 21.316c1.658-1.751 2.678-4.122 2.678-6.731 0-0.204-0.006-0.408-0.019-0.609l0.001 0.028-0.852-11.151c-0.107-1.608-1.49-2.852-3.14-2.852h-11.972c-1.649 0-3.033 1.244-3.139 2.853l-0.852 11.15c-0.213 2.697 0.745 5.342 2.66 7.313 1.65 1.763 3.938 2.852 6.385 3.060v5.757h-4.15c-0.005-0-0.010-0-0.015-0-0.517 0-0.937 0.417-0.942 0.933v0c0 0.518 0.425 0.933 0.957 0.933h10.164c0.005 0 0.010 0 0.015 0 0.517 0 0.937-0.417 0.942-0.933v-0c-0.005-0.517-0.425-0.933-0.942-0.933-0.005 0-0.011 0-0.016 0h-4.15v-5.757c2.448-0.207 4.736-1.297 6.386-3.060zM10.020 1.816h11.973c0.637 0 1.223 0.519 1.276 1.141l0.372 4.668h-15.218l0.372-4.668c0-0.622 0.585-1.141 1.223-1.141zM7.945 14.107l0.319-4.615h15.484l0.319 4.615c0.16 2.231-0.586 4.305-2.129 5.964-1.501 1.568-3.611 2.542-5.949 2.542-0.004 0-0.007 0-0.011 0h0.001c-2.288 0-4.364-0.883-5.96-2.542-1.49-1.607-2.235-3.733-2.075-5.964z"></path>
        </symbol>
        <symbol id="icon-IMAGE8-8" viewBox="0 0 32 32">
            <path fill="#52503b" style="fill: var(--color1, #52503b)" d="M31.878 18.375c-1.146-3.64-3.748-7.592-7.236-11.076-3.436-3.484-7.393-6.032-11.036-7.176-1.301-0.416-2.759 0.26-3.228 1.56l-10.203 26.781c-0.364 0.988-0.156 2.028 0.572 2.756 0.52 0.521 1.145 0.78 1.822 0.78 0.336-0.001 0.658-0.058 0.958-0.162l-0.021 0.006 15.668-5.98c0.052 0 0.052 0 0.104-0.052l1.875-0.728 9.109-3.484c1.019-0.361 1.736-1.317 1.736-2.44 0-0.28-0.045-0.55-0.127-0.802l0.005 0.018zM2.883 30.076c-0.417 0.156-0.729-0.104-0.833-0.156-0.104-0.104-0.364-0.364-0.156-0.832l2.187-5.72c0.52 1.144 1.613 1.924 2.967 1.924 1.77 0 3.227-1.456 3.227-3.224s-1.457-3.224-3.227-3.224c-0.004-0-0.009-0-0.014-0-0.488 0-0.949 0.115-1.357 0.319l0.018-0.008 4.060-10.71c0.677 0.415 1.354 0.831 2.030 1.351-0.822 0.582-1.352 1.529-1.353 2.6v0c0 1.769 1.458 3.224 3.227 3.224 0.002 0 0.005 0 0.008 0 1.327 0 2.465-0.806 2.952-1.955l0.008-0.021c2.498 2.34 4.945 5.148 7.028 8.58l-1.25 0.468c0-1.769-1.458-3.224-3.227-3.224-1.771 0-3.228 1.456-3.228 3.224 0 0.832 0.313 1.56 0.833 2.132l-13.899 5.251zM5.589 22.067c0-0.78 0.625-1.404 1.405-1.404s1.406 0.624 1.406 1.404c0 0.78-0.625 1.404-1.406 1.404-0.002 0-0.003 0-0.005 0-0.773 0-1.399-0.626-1.399-1.399 0-0.002 0-0.004 0-0.006v0zM15.064 12.291v0.104c0 0.78-0.625 1.404-1.405 1.404-0.002 0-0.005 0-0.007 0-0.773 0-1.399-0.626-1.399-1.399 0-0.002 0-0.004 0-0.006v0c0-0.728 0.521-1.3 1.25-1.404 0.52 0.417 1.041 0.833 1.562 1.3zM18.812 24.044c-0.625-0.156-1.093-0.728-1.093-1.352 0-0.78 0.625-1.404 1.406-1.404s1.404 0.624 1.404 1.404c0 0.312-0.103 0.572-0.26 0.78l-1.458 0.572zM29.692 19.884l-4.32 1.664c-2.551-4.316-5.727-7.748-8.798-10.4-0.052 0-0.052-0.053-0.104-0.053-0.646-0.558-1.358-1.12-2.094-1.652l-0.092-0.063-0.052-0.052c-1.354-0.988-2.655-1.872-3.852-2.601l1.666-4.42c0.11-0.303 0.394-0.516 0.728-0.52h0c0.104 0 0.156 0 0.26 0.052 3.332 1.040 7.079 3.536 10.307 6.761s5.726 7.020 6.768 10.348c0.156 0.364-0.052 0.78-0.417 0.936z"></path>
        </symbol>
        <symbol id="icon-star" viewBox="0 0 32 32">
            <path fill="#52503b" style="fill: var(--color1, #52503b)" d="M31.276 11.538l-9.991-1.547-4.526-9.493c-0.137-0.296-0.432-0.498-0.773-0.498s-0.636 0.202-0.771 0.492l-0.002 0.005-4.526 9.547-9.936 1.493c-0.718 0.112-0.994 1.049-0.441 1.547l7.228 7.449-1.707 10.436c-0.11 0.718 0.606 1.324 1.269 0.884l8.997-4.914 8.942 4.914c0.608 0.331 1.38-0.22 1.214-0.884l-1.71-10.434 7.23-7.451c0.441-0.498 0.22-1.435-0.498-1.547z"></path>
        </symbol>
        <symbol id="icon-Shape" viewBox="0 0 32 32">
            <path fill="#52503b" style="fill: var(--color1, #52503b)" d="M31.879 12.053c-0.213-0.64-0.747-1.12-1.387-1.227l-8.907-1.387-4-8.427c-0.286-0.603-0.89-1.013-1.589-1.013-0.004 0-0.008 0-0.011 0h0.001c-0.693 0-1.28 0.373-1.547 1.013l-4 8.48-8.96 1.44c-0.64 0.107-1.173 0.587-1.387 1.227s-0.053 1.387 0.427 1.867l6.453 6.613-1.493 9.227c-0.107 0.693 0.16 1.387 0.747 1.813 0.32 0.213 0.64 0.32 0.96 0.32 0.267 0 0.587-0.053 0.8-0.213l8-4.373 7.947 4.32c0.587 0.32 1.28 0.267 1.813-0.107 0.587-0.427 0.853-1.12 0.747-1.813l-1.493-9.28 6.453-6.613c0.48-0.48 0.64-1.227 0.427-1.867zM30.652 13.173l-6.4 6.613c-0.213 0.213-0.32 0.587-0.267 0.907l1.493 9.28c0.053 0.373-0.107 0.64-0.32 0.747-0.107 0.053-0.373 0.213-0.693 0.053l-8-4.32c-0.139-0.076-0.304-0.12-0.48-0.12s-0.341 0.044-0.485 0.123l0.005-0.003-8 4.373c-0.32 0.16-0.587 0.053-0.693-0.053-0.198-0.153-0.325-0.391-0.325-0.659 0-0.031 0.002-0.062 0.005-0.092l-0 0.004 1.547-9.227c0.009-0.052 0.014-0.113 0.014-0.175 0-0.282-0.107-0.539-0.282-0.733l0.001 0.001-6.453-6.613c-0.15-0.148-0.243-0.354-0.243-0.582 0-0.078 0.011-0.153 0.031-0.224l-0.001 0.006c0.107-0.267 0.267-0.427 0.533-0.48l8.96-1.44c0.32-0.053 0.64-0.267 0.747-0.587l4-8.48c0.16-0.267 0.373-0.427 0.64-0.427s0.48 0.16 0.587 0.427l4 8.48c0.16 0.32 0.427 0.533 0.747 0.587l8.907 1.387c0.267 0.053 0.48 0.213 0.533 0.48 0.16 0.16 0.16 0.533-0.107 0.747z"></path>
        </symbol>
        <symbol id="icon-wi-fi" viewBox="0 0 32 32">
            <path fill="#52503b" style="fill: var(--color1, #52503b)" d="M27.973 23.396c2.249 0 4.027 1.804 4.027 3.969s-1.83 3.969-4.027 3.969c-2.196 0-4.026-1.804-4.026-3.969s1.83-3.968 4.027-3.968zM29.439 0.667c0.523 0 0.94 0.412 0.94 0.928s-0.418 0.927-0.94 0.927c-15.216 0-27.609 12.164-27.556 27.214 0 0.516-0.418 0.927-0.942 0.927-0.003 0-0.007 0-0.011 0-0.513 0-0.929-0.415-0.931-0.928v-0c0-16.028 13.176-29.016 29.438-29.068zM29.386 9.068c0.524 0 0.942 0.412 0.942 0.928 0 0.001 0 0.001 0 0.002 0 0.483-0.392 0.875-0.875 0.875-0.005 0-0.010-0-0.015-0h0.001c-10.563 0-19.138 8.452-19.084 18.812 0 0.516-0.419 0.927-0.942 0.927-0.003 0-0.007 0-0.011 0-0.513 0-0.929-0.415-0.931-0.928v-0c0-11.339 9.36-20.616 20.916-20.616zM29.386 17.366c0.524 0 0.942 0.412 0.942 0.927s-0.366 0.876-0.889 0.876c-5.857 0-10.667 4.69-10.667 10.515 0 0.516-0.418 0.927-0.942 0.927-0.003 0-0.007 0-0.011 0-0.513 0-0.929-0.415-0.931-0.928v-0c0-6.803 5.595-12.317 12.497-12.317zM27.975 25.252c-1.203 0-2.196 0.98-2.196 2.164s0.994 2.165 2.196 2.165c1.204 0 2.196-0.98 2.196-2.165s-0.993-2.164-2.196-2.164z"></path>
        </symbol>
        <symbol id="icon-bread" viewBox="0 0 32 32">
            <path fill="#52503b" style="fill: var(--color1, #52503b)" d="M16.026 9.333c-8.95 0-16.026 3.764-16.026 8.494 0 0.43 0.052 0.915 0.208 1.398 0.312 0.972 1.060 1.724 2.007 2.036l0.022 0.006c2.653 0.86 7.908 1.398 13.736 1.398s11.084-0.538 13.737-1.398c0.956-0.314 1.697-1.042 2.023-1.967l0.007-0.022 0.052-0.107c0.104-0.484 0.209-0.915 0.209-1.344 0.052-4.786-7.025-8.495-15.974-8.495zM30.126 18.635v0.053c-0.118 0.397-0.431 0.701-0.825 0.804l-0.008 0.002c-2.498 0.807-7.7 1.291-13.268 1.291s-10.771-0.538-13.217-1.29c-0.416-0.162-0.729-0.43-0.833-0.807-0.104-0.268-0.104-0.591-0.104-0.86 0-1.882 1.821-3.656 4.683-4.892 0.521 2.312 2.133 3.979 4.059 3.979 0.521 0 0.937-0.43 0.937-0.967s-0.416-0.969-0.937-0.969c-1.092 0-2.081-1.129-2.341-2.741 1.528-0.488 3.314-0.85 5.157-1.015l0.098-0.007c0.312 2.636 1.873 5.646 4.163 5.646 0.52 0 0.937-0.43 0.937-0.968s-0.417-0.968-0.937-0.968c-0.988 0-2.081-1.882-2.341-3.87h0.676c1.562 0 3.123 0.107 4.528 0.376 0.104 2.957 1.977 5.376 4.213 5.376 0.521 0 0.938-0.43 0.938-0.967s-0.417-0.969-0.937-0.969c-1.196 0-2.186-1.397-2.394-3.117 4.579 1.129 7.804 3.387 7.804 5.914 0.053 0.43 0 0.699-0.052 0.968z"></path>
        </symbol>
        <symbol id="icon-hanger" viewBox="0 0 32 32">
            <path fill="#52503b" style="fill: var(--color1, #52503b)" d="M27.78 21.351l-9.423-4.935c0.103-0.312 0-0.728-0.311-0.935-0.363-0.312-0.932-0.26-1.294 0.103-0.104 0.156-0.518 0.26-0.984 0.156-0.414-0.104-0.673-0.416-0.725-0.884-0.052-0.676 0.26-1.142 1.036-1.454 0.518-0.208 0.88-0.727 0.828-1.299v-3.377c1.968-0.415 3.418-2.181 3.418-4.311 0-0.003 0-0.008 0-0.012 0-2.431-1.97-4.402-4.401-4.404h-0c-2.431 0.002-4.402 1.973-4.402 4.404 0 0.004 0 0.008 0 0.012v-0.001c0 0.001 0 0.002 0 0.003 0 2.118 1.498 3.886 3.492 4.303l0.029 0.005 0.052 3.065c-1.295 0.676-2.020 1.819-1.865 3.221 0.048 0.507 0.216 0.967 0.474 1.363l-0.007-0.012-9.476 4.987c-0.777 0.364-1.295 1.091-1.502 1.922v0.052c-0.052 0.208-0.052 0.416-0.052 0.624v5.142c0 0.003-0 0.006-0 0.010 0 1.601 1.298 2.9 2.9 2.9 0 0 0 0 0 0h20.868c0 0 0 0 0 0 1.601 0 2.9-1.298 2.9-2.9 0-0.003 0-0.007-0-0.010v0.001-5.142c0-1.143-0.621-2.13-1.554-2.597zM13.385 4.416c-0-0.009-0-0.020-0-0.030 0-1.418 1.15-2.568 2.568-2.568 0.008 0 0.015 0 0.023 0h-0.001c0.006-0 0.013-0 0.021-0 1.419 0 2.569 1.15 2.569 2.569 0 0.010-0 0.021-0 0.031v-0.002c0 0.009 0 0.019 0 0.029 0 1.418-1.15 2.568-2.568 2.568-0.008 0-0.016-0-0.024-0h0.001c-0.006 0-0.014 0-0.021 0-1.418 0-2.568-1.15-2.568-2.568 0-0.010 0-0.021 0-0.031v0.002zM15.404 17.558l0.052-0.052c0.26 0.052 0.467 0.104 0.725 0.104 0.156 0 0.311 0 0.466-0.052l9.528 4.987h-20.35l9.58-4.987zM26.434 30.182h-20.919c-0.6-0.005-1.085-0.491-1.087-1.091v-4.676h23.093v4.676c0 0.572-0.517 1.092-1.087 1.092z"></path>
        </symbol>
        <symbol id="icon-cut" viewBox="0 0 32 32">
            <path fill="#52503b" style="fill: var(--color1, #52503b)" d="M23.656 0c3.073 0 5.625 2.498 5.677 5.671v11.188c0 0.006 0 0.013 0 0.021 0 0.908-0.736 1.644-1.644 1.644-0.008 0-0.016-0-0.024-0h-1.092v11.083c0 1.301-1.093 2.394-2.396 2.394h-1.51c-1.302 0-2.396-1.093-2.396-2.394v-27.941c-0-0.006-0-0.013-0-0.021 0-0.908 0.736-1.644 1.644-1.644 0.008 0 0.016 0 0.024 0h1.717zM8.292 0.052c0.001 0 0.003 0 0.004 0 0.515 0 0.933 0.418 0.933 0.933 0 0.001 0 0.002 0 0.003v-0 7.961h2.916v-7.908c0-0.001 0-0.002 0-0.004 0-0.515 0.418-0.933 0.933-0.933 0.002 0 0.004 0 0.006 0h-0c0.521 0 0.885 0.416 0.937 0.884v13.321c0 0.78-0.572 1.352-1.354 1.352h-1.198v13.893c0 1.3-1.093 2.393-2.396 2.393h-1.458c-1.302 0-2.396-1.092-2.396-2.393v-13.946h-1.199c-0.78 0-1.354-0.572-1.354-1.353v-13.268c0-0.468 0.364-0.935 0.885-0.935 0.001 0 0.003 0 0.004 0 0.515 0 0.933 0.418 0.933 0.933 0 0.001 0 0.002 0 0.003v-0 7.909h2.864v-7.91c0-0.001 0-0.001 0-0.002 0-0.515 0.418-0.933 0.933-0.933 0.002 0 0.003 0 0.005 0h-0zM24.75 18.524h-2.657v11.083c0.003 0.315 0.258 0.57 0.573 0.572h1.511c0.311 0 0.572-0.312 0.572-0.624v-11.031zM9.646 15.661h-2.604v13.945c0.003 0.315 0.258 0.569 0.572 0.572h1.459c0.315-0.003 0.57-0.257 0.573-0.572v-13.944zM23.604 1.822h-1.563v14.88h5.417v-11.031c0-2.133-1.719-3.85-3.854-3.85zM12.198 10.72h-7.709v3.122h7.708v-3.122z"></path>
        </symbol>
        <symbol id="icon-site" viewBox="0 0 32 32">
            <path fill="#fff" style="fill: var(--color1, #fff)" d="M16.040 24.36c-1.778-2.27-2.793-4.231-3.149-5.986-1.574-6.348 7.922-6.348 6.348 0-0.406 1.755-1.473 3.82-3.2 5.987zM25.688 29.574c-2.945 1.29-5.89-0.775-8.379-3.562 7.313-9.29 3.301-14.348-1.27-14.348-3.859 0-5.991 3.252-5.128 7.174 0.508 2.116 1.777 4.439 3.86 7.123-2.286 2.529-4.216 3.768-5.993 3.922-3.504 0.568-6.246-2.89-4.926-6.451 1.067-2.787 7.871-16.516 8.176-17.239 1.066-2.167 1.777-4.077 4.164-4.077 2.285 0 3.098 1.806 4.215 4.284 2.59 5.006 6.297 12.645 8.074 17.032 0.762 2.322-0.203 5.058-2.793 6.142zM29.040 19.871c-9.090-19.561-9.598-19.871-13-19.871-3.2 0-4.57 2.27-5.942 5.161-7.515 15.226-8.175 17.29-8.328 17.549-1.726 4.954 1.93 9.29 6.297 9.29 1.524 0 4.316-0.412 7.922-4.438 4.164 4.593 7.16 4.438 7.922 4.438 4.418 0 8.074-4.387 6.297-9.29 0.050-0.31-1.168-2.787-1.168-2.838z"></path>
        </symbol>
        <symbol id="icon-facebook" viewBox="0 0 32 32">
            <path fill="#fff" style="fill: var(--color1, #fff)" d="M18.129 32h-3.935c-1.009 0-1.816-0.855-1.816-1.912v-11.975h-3.229c-1.009 0-1.816-0.855-1.816-1.912v-3.471c0-1.057 0.807-1.912 1.816-1.912h3.128v-3.17c0-4.579 2.724-7.648 6.76-7.648h3.026c1.010 0 1.816 0.855 1.816 1.912v4.075c0 1.057-0.807 1.912-1.816 1.912h-2.168v2.868h2.875c0.605 0.050 1.11 0.302 1.462 0.705 0.354 0.453 0.505 1.056 0.404 1.61l-0.605 3.421c-0.101 0.906-0.858 1.56-1.816 1.56h-2.32v12.025c0 1.006-0.808 1.912-1.766 1.912zM13.235 16.352c0.505 0 0.908 0.403 0.908 0.906v12.83c0 0.1 0.050 0.151 0.050 0.151h3.936s0.050-0.050 0.050-0.15v-12.933c0-0.503 0.404-0.905 0.908-0.905h3.178s0.050 0 0.050-0.050v-0.051l0.606-3.371c0-0.1 0-0.151-0.050-0.201 0 0-0.051-0.050-0.101-0.050h-3.733c-0.002 0-0.003 0-0.005 0-0.499 0-0.903-0.404-0.903-0.903 0-0.001 0-0.002 0-0.003v0-3.572c0-0.905 0.15-1.912 1.866-1.912h2.068s0.050-0.050 0.050-0.15v-4.027c0-0.1-0.050-0.15-0.050-0.15h-2.976c-3.027 0-4.994 2.314-4.994 5.886v4.076c0 0.001 0 0.001 0 0.002 0 0.499-0.404 0.903-0.903 0.903-0.002 0-0.004 0-0.005 0h-4.036s-0.050 0.050-0.050 0.151v3.472c0 0.1 0.050 0.15 0.050 0.15l4.086-0.1z"></path>
        </symbol>
        <symbol id="icon-insta" viewBox="0 0 32 32">
            <path fill="#fff" style="fill: var(--color1, #fff)" d="M24.038 0c4.384 0 7.962 3.533 7.962 7.924v16.101c0 4.391-3.528 7.975-7.912 7.975h-16.126c-4.384 0-7.962-3.533-7.962-7.924v-16.152c-0-0.007-0-0.016-0-0.024 0-4.363 3.537-7.9 7.9-7.9 0.004 0 0.008 0 0.013 0h16.125zM24.038 1.767h-16.126c-3.377 0-6.148 2.776-6.148 6.157v16.152c0 3.432 2.771 6.208 6.148 6.208h16.176c3.377 0 6.148-2.776 6.148-6.208v-16.101c0-0.003 0-0.006 0-0.009 0-3.423-2.775-6.198-6.198-6.199h-0zM15.975 8.58c4.082 0 7.408 3.332 7.408 7.42s-3.326 7.42-7.408 7.42c-4.082 0-7.408-3.332-7.408-7.42s3.326-7.42 7.408-7.42zM15.975 10.347c-0.002 0-0.003 0-0.005 0-3.115 0-5.64 2.525-5.64 5.64 0 0.005 0 0.009 0 0.014v-0.001c0 0.004 0 0.008 0 0.013 0 3.115 2.525 5.64 5.64 5.64 0.001 0 0.003 0 0.004 0h-0c0.002 0 0.003 0 0.005 0 3.115 0 5.64-2.525 5.64-5.64 0-0.005 0-0.009-0-0.014v0.001c0-0.004 0-0.008 0-0.013 0-3.115-2.525-5.64-5.64-5.64-0.001 0-0.003 0-0.004 0h0zM24.088 4.947c1.058 0 1.915 0.857 1.915 1.917 0.001 0.018 0.001 0.040 0.001 0.062 0 1.058-0.858 1.916-1.916 1.916s-1.916-0.858-1.916-1.916c0-0.022 0-0.043 0.001-0.065l-0 0.003c0-1.060 0.857-1.918 1.915-1.918z"></path>
        </symbol>
    </defs>
</svg>